<svg xmlns="http://www.w3.org/2000/svg" version="1.1" xmlns:xlink="http://www.w3.org/1999/xlink" xmlns:svgjs="http://svgjs.dev/svgjs" width="100%" height="100%" viewBox="0 0 1000 600"><rect width="1000" height="600" x="0" y="0" fill="#072c50"/><g><circle r="166.66666666666666" cx="401.48331705729163" cy="423.7054713187882" fill="#b88746" transform="matrix(0.5323305327931724,0,0,0.5323305327931723,0,74.44868205335771)"/><path d="M448.3094265870879 476.08817821578697Q450.5711540114941 478.4057507617835 452.4419655847684 479.4388855112036Q454.28485459724754 480.44409769982855 455.37383446825794 480.5557879430091Q456.46281433926833 480.6395556253945 458.4732387165183 480.6395556253945Q460.4836630937683 480.6395556253945 464.0019057539558 478.79666661291543L464.0019057539558 478.79666661291543L467.15715512380643 485.86107449408547Q460.56743077615374 494.0144622462659 450.9620698626261 497.3372469808874L450.9620698626261 497.3372469808874Q446.9412211081261 498.70545245984914 444.48403575815394 498.70545245984914L444.48403575815394 498.70545245984914Q435.1579004525777 498.70545245984914 428.7636340304909 494.0144622462659Q422.3972901691993 489.29554947188745 417.76214507720636 483.09674097536674Q413.1549225460085 476.92585503964114 409.0503061091231 468.9679252130266L409.0503061091231 468.9679252130266Q401.37160189046 454.4481935995546 397.26698545357465 439.42585589177L397.26698545357465 439.42585589177Q388.41553368151574 440.59860344516585 377.9166508225436 440.59860344516585L377.9166508225436 440.59860344516585L377.9166508225436 462.2106655006031Q377.9166508225436 470.1406727664224 379.0893983759394 487.6201958241792L379.0893983759394 487.6201958241792L379.4803142270714 493.5118561519534Q371.15939111012005 496.052809184311 359.59945094093274 496.052809184311Q348.06743333254053 496.052809184311 344.940106523485 493.5118561519534L344.940106523485 493.5118561519534Q347.78820772458914 472.7933160419606 347.78820772458914 461.90351733185656L347.78820772458914 461.90351733185656L347.78820772458914 383.16189588956587Q347.78820772458914 374.45005692148266 346.22454432006134 371.9928715715104Q344.63295835473843 369.53568622153824 344.1582748212211 368.7817770800695Q343.65566872690863 368.0557904993959 342.42707605192254 367.32980391872235Q341.19848337693645 366.57589477725355 340.72379984341904 366.29666916930216L340.72379984341904 366.29666916930216Q339.63481997240865 365.79406307498965 337.289324865617 365.0122313727258L337.289324865617 365.0122313727258Q335.8094291434747 361.18684054379185 335.8094291434747 357.4172948364481Q335.8094291434747 353.6198265683093 335.89319682586006 352.75422718366L335.89319682586006 352.75422718366Q362.2241716556757 348.70545586836494 394.02796840133857 348.70545586836494L394.02796840133857 348.70545586836494L399.6124805603663 348.70545586836494Q420.526478595925 349.12429428029196 435.35335837814364 359.03680336256616L435.35335837814364 359.03680336256616Q442.61322418487964 363.9232515017154 446.9412211081261 371.79741364594446Q451.2412954705775 379.6436532293784 451.2412954705775 389.5561623116526L451.2412954705775 389.5561623116526Q451.2412954705775 406.0583957415795 443.3392107655532 417.6741810323571Q435.437126060529 429.31788888392987 417.287461543689 435.2095492117041L417.287461543689 435.2095492117041Q424.93824320155693 445.51297414511026 430.1318395094527 452.8845301950268Q435.35335837814364 460.2281636841482 438.59237543037966 464.5561606073947Q441.83139248261574 468.8841575306412 443.92558454225116 471.31342031981825Q446.0476991626817 473.7706056697904 448.3094265870879 476.08817821578697ZM422.20183224363336 389.75162023721856L422.20183224363336 389.75162023721856Q422.20183224363336 363.83948381933 391.3753251258004 363.83948381933L391.3753251258004 363.83948381933Q385.5674324804116 363.83948381933 377.9166508225436 364.6213155215939L377.9166508225436 364.6213155215939L377.9166508225436 425.3808078118154Q412.68023901249114 423.900912089673 419.43749872491463 406.92399512622876L419.43749872491463 406.92399512622876Q422.20183224363336 399.7758195626733 422.20183224363336 389.75162023721856Z " fill="#072c50" transform="matrix(0.5323305327931724,0,0,0.5323305327931723,0,74.44868205335771)"/><path d="M665.0357127025511 478.7434767273889L665.0357127025511 467.39095083210054L664.8455986325343 387.4615639664701Q664.8455986325343 375.4300592496932 657.8656963476321 372.00800598939105L657.8656963476321 372.00800598939105Q657.0237626089863 371.5191412379193 655.1497810616779 370.9487990278689Q653.3029586672292 370.3784568178185 652.9227305271957 370.18834274780176L652.9227305271957 370.18834274780176Q651.4832954256399 368.28720204763385 651.4832954256399 363.9417375901072Q651.4832954256399 359.5962731325806 651.7548869542353 357.8852465024295L651.7548869542353 357.8852465024295Q663.4061635309786 355.49524105078984 675.220395024879 355.49524105078984Q687.0074673659201 355.49524105078984 690.6739530019581 355.71251427366616Q694.3404386379963 355.956946649402 694.6391893194512 356.14706071941885L694.6391893194512 356.14706071941885Q695.9699878095687 356.7174029294692 695.7798737395519 360.0579787311928L695.7798737395519 360.0579787311928L694.3404386379963 397.2116998430455L694.3404386379963 465.2996960619159Q694.3404386379963 471.68209698390814 694.829303389468 474.8325587156149Q695.3181681409399 477.98302044732173 696.9205581596527 479.72120623033237L696.9205581596527 479.72120623033237Q703.3301182345044 479.23234147886063 716.2307158427867 478.36324858735526Q729.1041542982093 477.52131484870955 736.464284723145 476.84233602722094L736.464284723145 476.84233602722094L737.7950832132626 464.9194679218823Q739.0444042448015 463.099804680293 742.384980046525 461.52457381443963Q745.7255558482486 459.9493429485862 750.7228399744043 459.9493429485862Q755.7472832534195 459.9493429485862 758.5175168450927 462.8010539988381L758.5175168450927 462.8010539988381Q763.3790052069506 467.87981558357234 763.3790052069506 485.23451426081925L763.3790052069506 485.23451426081925Q763.3790052069506 492.594644685755 761.6679785767996 494.60442199736104L761.6679785767996 494.60442199736104Q753.465914413218 494.79453606737786 688.5283799260544 494.79453606737786L688.5283799260544 494.79453606737786L669.897201064409 494.79453606737786Q667.9960603642411 494.1155572458893 666.5294661098259 490.06884346981764Q665.0357127025511 486.02212969374597 665.0357127025511 478.7434767273889L665.0357127025511 478.7434767273889ZM889.9949758381329 442.8390766470751L889.9949758381329 442.8390766470751Q889.9949758381329 455.3594461153237 885.5137156163084 466.3317438705784Q881.0324553944841 477.33120077869273 872.803232078043 484.28394391073533L872.803232078043 484.28394391073533Q856.2904671394418 498.32522593911824 829.1856325856195 498.32522593911824L829.1856325856195 498.32522593911824Q815.6060561558488 498.32522593911824 804.1448936491223 491.94282501712604Q792.7108902952554 485.53326494227423 785.92110208037 474.01778412982867Q779.1313138654847 462.52946247024266 779.1313138654847 446.53272143597275Q779.1313138654847 430.53598040170283 787.3605371819257 417.7440194048588L787.3605371819257 417.7440194048588Q803.4930739804934 392.5403255512044 841.4887288309917 392.5403255512044L841.4887288309917 392.5403255512044Q860.5816132912494 392.5403255512044 875.003123459666 405.60387807664375L875.003123459666 405.60387807664375Q889.9949758381329 419.26493196499314 889.9949758381329 442.8390766470751ZM807.295355380829 445.6093102387483Q807.295355380829 461.95912026019226 816.7467405759495 474.18073904698593Q826.2252849239295 486.40235783377955 838.9086093093354 486.40235783377955L838.9086093093354 486.40235783377955Q862.4012765328387 486.40235783377955 862.4012765328387 448.1079523018261L862.4012765328387 448.1079523018261Q862.4012765328387 429.0965453001471 853.7103476177854 417.2551546533871Q845.0194187027322 405.413764006627 831.5484788843996 405.413764006627L831.5484788843996 405.413764006627Q824.7858498223738 405.413764006627 819.8157248490777 408.86297641978877Q814.8455998757817 412.285029680091 812.2654803541252 418.1242475448924L812.2654803541252 418.1242475448924Q807.295355380829 429.28665937016393 807.295355380829 445.6093102387483ZM1013.7320762662036 479.72120623033237L1013.7320762662036 479.72120623033237Q1017.561516819399 479.72120623033237 1021.1736841497179 477.2225641672546L1021.1736841497179 477.2225641672546L1025.1117613143515 483.63212424210633Q1018.7022012394996 493.27362350724354 1008.5718372228907 497.07590490757934L1008.5718372228907 497.07590490757934Q1004.3893276825214 498.7054540791518 999.8809083078374 498.7054540791518Q995.3996480860131 498.7054540791518 991.1628202399247 496.36976693323123Q986.8988332409767 494.0340797873107 983.6668940506913 490.39475330413217Q980.4077957075463 486.7825859738131 977.3116522815585 481.32359624904535Q974.2155088555708 475.891765677137 972.0970949325265 470.86732239812187Q970.0058401623419 465.8700382719662 967.9145853921572 459.46047819711447L967.9145853921572 459.46047819711447Q965.3344658705007 451.910233702162 962.0753675273559 439.0367952467393L962.0753675273559 439.0367952467393Q955.5028525353467 449.2486367219269 949.7722712819835 455.65819679677867L949.7722712819835 455.65819679677867Q949.7722712819835 466.711972010612 949.3920431419499 494.79453606737786L949.3920431419499 494.79453606737786Q940.0221354054081 496.6141993089671 932.7163232861915 496.6141993089671Q925.4105111669749 496.6141993089671 920.4403861936787 494.60442199736104L920.4403861936787 494.60442199736104Q922.8303916453184 480.18291182894455 922.8303916453184 440.74782187689044Q922.8303916453184 401.3127319248362 921.4181156966222 372.958576339475L921.4181156966222 372.958576339475Q920.6305002636955 363.8059418258095 909.2779743684073 362.44798418283244L909.2779743684073 362.44798418283244Q909.1964969098286 361.8776419727821 909.0063828398117 360.7369575526813L909.0063828398117 360.7369575526813Q908.6261546997782 358.5370661710585 908.6261546997782 357.53217751525546Q908.6261546997782 356.5272888594524 908.7076321583568 355.76683257938527L908.7076321583568 355.76683257938527Q926.5511955870755 348.7054528359045 945.182374448721 348.7054528359045L945.182374448721 348.7054528359045Q946.0514673402263 348.7054528359045 947.0020376903103 348.7054528359045L947.0020376903103 348.7054528359045Q949.0932924604949 351.39420896899907 949.5821572119668 359.4876365211424Q950.043862810579 367.6082232261453 950.043862810579 392.4316889397662Q950.043862810579 417.2551546533871 949.9623853520003 438.0862248966554L949.9623853520003 438.0862248966554Q960.5544549672214 418.31436161490916 968.6750416722243 409.6234326998559L968.6750416722243 409.6234326998559Q978.588132465957 399.0313630846348 985.4322389865614 396.3426069515402Q992.2491863543064 393.6810099713051 997.7081760790741 393.6810099713051L997.7081760790741 393.6810099713051Q1007.2410387327732 393.6810099713051 1013.2160523618724 398.9770447789157Q1019.1910659909713 404.27307958652625 1019.1910659909713 413.2084408773154Q1019.1910659909713 422.1438021681045 1013.297529820451 427.4398369757151Q1007.4311528027899 432.7358717833257 999.3105660977872 432.7358717833257L999.3105660977872 432.7358717833257Q997.5995394676361 432.7358717833257 995.8885128374848 432.43712110187073L995.8885128374848 432.43712110187073Q995.8885128374848 421.5734599580542 991.6788441442559 417.06504058337026L991.6788441442559 417.06504058337026Q989.777703444088 414.9737858131856 986.0025811966118 414.9737858131856Q982.2274589491356 414.9737858131856 978.5066550073784 417.9884517805947Q974.7858510656213 420.9759585951443 969.9243627037632 427.46699612857464L969.9243627037632 427.46699612857464Q983.0965518406408 451.06829996351615 995.1280565574177 465.3811735204945Q1007.1595612741945 479.72120623033237 1013.7320762662036 479.72120623033237ZM1070.6576606598023 453.5397828737344Q1073.5093717100544 467.68970151355546 1082.879279446596 476.3534712757492Q1092.2220280302784 485.0444001908025 1104.742397498527 485.0444001908025Q1117.235607813916 485.0444001908025 1129.9460913521814 474.26221650556454L1129.9460913521814 474.26221650556454Q1134.7261022554608 477.41267823727134 1135.7581500641231 481.7038243890789L1135.7581500641231 481.7038243890789Q1126.9857436904913 491.94282501712604 1109.7939999304017 496.3154486275122L1109.7939999304017 496.3154486275122Q1102.8140976454995 498.1351118691014 1093.715781437553 498.1351118691014Q1084.5903060767473 498.1351118691014 1074.8401702001718 494.84885437309697Q1065.1171934764561 491.5354377242329 1057.4311532172057 485.23451426081925Q1049.7451129579556 478.93359079740566 1045.2366935832717 468.667431016499Q1040.7554333614473 458.4284303884519 1040.7554333614473 445.9080609202033Q1040.7554333614473 433.3876914519547 1045.3453301947097 423.2301682824862Q1049.9352270279724 413.0726451130177 1057.4583123700654 406.5816075795873L1057.4583123700654 406.5816075795873Q1073.2106210285992 392.92055369123796 1093.552826520396 392.92055369123796L1093.552826520396 392.92055369123796Q1111.4235491019742 392.92055369123796 1124.4871016274135 402.56205295637517L1124.4871016274135 402.56205295637517Q1130.7880250908272 407.34206385965444 1134.5631473383035 414.9194675074665Q1138.3382695857797 422.5240303081381 1138.3382695857797 432.05689296183715L1138.3382695857797 432.05689296183715Q1138.3382695857797 448.37954383042154 1127.5560859005418 449.2486367219269L1127.5560859005418 449.2486367219269L1070.6576606598023 453.5397828737344ZM1112.6457109806536 429.20518191158527Q1112.6457109806536 417.8254968634374 1106.3447875172399 411.4430959414452Q1100.0438640538264 405.0335358665934 1089.8320225786388 405.0335358665934Q1079.6201811034512 405.0335358665934 1074.3784646015597 414.64787597887107Q1069.1095889468086 424.23505693828923 1069.1095889468086 441.2366866283622L1069.1095889468086 441.2366866283622Q1092.9010068517669 438.6565671067057 1112.075368770603 435.7776969035943L1112.075368770603 435.7776969035943Q1112.6457109806536 432.3556436432921 1112.6457109806536 429.20518191158527L1112.6457109806536 429.20518191158527ZM1161.3420720578115 464.4306031704105L1161.3420720578115 464.4306031704105Q1163.5419634394343 464.050375030377 1167.697313826944 464.050375030377Q1171.8526642144539 464.050375030377 1178.7239298879178 467.39095083210054L1178.7239298879178 467.39095083210054Q1178.6424524293393 468.1514071121677 1178.6424524293393 470.2426618823524Q1178.6424524293393 472.36107580539664 1179.6473410851422 475.4029009256653Q1180.6522297409451 478.4718851987935 1182.74348451113 481.05200472044993L1182.74348451113 481.05200472044993Q1187.3333813443924 486.7825859738131 1197.8168143481755 486.7825859738131Q1208.327406504818 486.7825859738131 1211.586504847963 479.72120623033237L1211.586504847963 479.72120623033237Q1214.3567384396363 473.20300954404246 1210.6087753450195 466.2502664119998L1210.6087753450195 466.2502664119998Q1207.8385417533464 461.09002736868695 1195.834196189429 456.4186530768458L1195.834196189429 456.4186530768458Q1193.824418877823 455.65819679677867 1190.2937290060825 454.3002391538016L1190.2937290060825 454.3002391538016Q1158.5718384661382 442.94771325851326 1158.1916103261046 421.464823346616L1158.1916103261046 421.464823346616Q1158.1916103261046 411.7146874700406 1163.6506000508723 405.0335358665934L1163.6506000508723 405.0335358665934Q1173.9439189846385 392.5403255512044 1198.495793169664 392.5403255512044L1198.495793169664 392.5403255512044Q1214.6283299682316 392.5403255512044 1225.7635826406436 399.22147715465155Q1236.871676160196 405.90262875809873 1236.871676160196 415.65276463467416L1236.871676160196 415.65276463467416Q1236.871676160196 426.5164257784907 1226.279606544975 426.5164257784907L1226.279606544975 426.5164257784907Q1218.7293620500222 426.5164257784907 1215.6875369297536 424.8597174540587Q1212.6185526566255 423.1758499767671 1212.6185526566255 422.98573590675034L1212.6185526566255 422.98573590675034Q1212.6185526566255 422.41539369669994 1212.6185526566255 421.95368809808775L1212.6185526566255 421.95368809808775Q1212.6185526566255 404.0829655165095 1195.236694826519 404.0829655165095L1195.236694826519 404.0829655165095Q1189.2345220445604 404.0829655165095 1185.758150478539 407.1791089424972Q1182.2546197596582 410.3024115213445 1182.2546197596582 416.250265997584Q1182.2546197596582 422.2252796266832 1186.5186067586062 426.13619763845713Q1190.7554346046945 430.0471156502311 1202.922735085769 434.9357631649485Q1215.1171947197033 439.79725152680646 1218.5392479800057 441.50827815695754L1218.5392479800057 441.50827815695754Q1240.0221378919027 451.910233702162 1240.0221378919027 468.4501577936227L1240.0221378919027 468.4501577936227Q1240.0221378919027 482.763031350601 1227.9634740222664 490.4490716098513Q1215.8776509997706 498.1351118691014 1195.834196189429 498.1351118691014L1195.834196189429 498.1351118691014Q1182.5533704411132 498.1351118691014 1175.7635822262278 495.85374302889994Q1169.000953164202 493.54521503583896 1165.4974224453213 491.64407433567106Q1162.0210508792998 489.74293363550316 1159.7668411919578 487.62451971245895Q1157.5397906574754 485.53326494227423 1156.0188780973413 483.25189610207275L1156.0188780973413 483.25189610207275Q1151.890686862691 477.2225641672546 1153.6288726457014 471.0302773152791L1153.6288726457014 471.0302773152791Q1155.0411485943978 465.76140166052807 1161.3420720578115 464.4306031704105ZM1394.0416937583623 406.96183571962086L1394.0416937583623 406.96183571962086Q1394.231807828379 405.413764006627 1394.231807828379 401.9373924406057Q1394.231807828379 398.4610208745844 1392.520781198228 395.88090135292794L1392.520781198228 395.88090135292794Q1392.520781198228 394.930331002844 1395.2910147899013 394.11555641705775Q1398.0612483815744 393.30078183127154 1400.9129594318265 393.30078183127154L1400.9129594318265 393.30078183127154Q1409.413774276863 393.30078183127154 1413.4604880529346 398.6511349446012Q1417.5343609818656 404.0014880579308 1417.5343609818656 410.19377490990627Q1417.5343609818656 416.4132209147413 1415.144355530226 423.0943725181885Q1412.7543500785864 429.77552412163567 1408.4088856210597 437.515882686605Q1404.0634211635331 445.22908209871474 1399.2019328016754 453.34966880371763L1399.2019328016754 453.34966880371763Q1386.0297436647975 475.13130939706986 1376.659835928256 497.37465558903426L1376.659835928256 497.37465558903426Q1373.2377826679535 498.7054540791518 1369.0281139747246 498.7054540791518Q1364.8184452814958 498.7054540791518 1361.0433230340195 497.07590490757934Q1357.2682007865433 495.4735148888664 1355.5571741563922 493.27362350724354L1355.5571741563922 493.27362350724354Q1351.1573913931466 486.97270004382995 1338.7456585363361 450.7695492820612L1338.7456585363361 450.7695492820612Q1333.5039420344444 460.0308204071648 1326.0623341509302 476.0275614414348Q1318.6207262674156 492.0243024757046 1316.0406067457593 497.37465558903426L1316.0406067457593 497.37465558903426Q1312.5913943325977 498.7054540791518 1308.3002481807898 498.7054540791518Q1304.0091020289824 498.7054540791518 1299.9895474057703 497.07590490757934Q1295.9699927825582 495.4735148888664 1294.503398528143 493.46373757726036Q1293.0096451208683 491.4539602656543 1288.0123609947125 478.93359079740566Q1282.9879177156974 466.4403804820166 1277.50176883807 452.77932659366724Q1272.0156199604426 439.1182727053179 1265.2258317455571 426.43494831991205Q1258.4632026835316 413.72446478164665 1253.873305850269 410.8727537313948L1253.873305850269 410.8727537313948Q1252.3523932901346 409.9221833813109 1244.6120347251654 409.3518411712605L1244.6120347251654 409.3518411712605Q1243.9330559036769 404.65330772655983 1243.9330559036769 404.0286472107904Q1243.9330559036769 403.4311458478805 1244.0416925151148 402.6435304149538L1244.0416925151148 402.6435304149538Q1257.892860473481 394.930331002844 1276.6055167937052 394.930331002844L1276.6055167937052 394.930331002844Q1278.4251800352945 394.930331002844 1281.8472332955967 395.1204450728608L1281.8472332955967 395.1204450728608Q1290.53816221065 404.0014880579308 1312.3198028040022 474.8325587156149L1312.3198028040022 474.8325587156149Q1324.6228990493746 449.4387507919437 1331.4941647228384 429.8570015802143L1331.4941647228384 429.8570015802143Q1324.5414215907958 410.57400304993985 1321.4724373176678 403.5126233064591L1321.4724373176678 403.5126233064591Q1330.7337084427713 397.0215857730287 1338.093838867707 397.0215857730287L1338.093838867707 397.0215857730287Q1345.8341974326763 397.0215857730287 1349.1747732344 402.1818248163416L1349.1747732344 402.1818248163416Q1352.3252349661066 406.8531991081827 1354.9053544877634 416.4946983733199Q1357.45831485656 426.13619763845713 1359.2779780981496 433.30621399337605L1359.2779780981496 433.30621399337605Q1363.7863974728332 451.2584140335329 1372.1785757064315 474.8325587156149L1372.1785757064315 474.8325587156149Q1393.0911234082785 416.6033349847581 1394.0416937583623 406.96183571962086ZM1522.6674417011504 440.85645848832854L1522.6674417011504 440.85645848832854L1522.069940338241 472.93141801544704Q1522.069940338241 473.3931236140592 1522.069940338241 473.88198836553096L1522.069940338241 473.88198836553096Q1522.069940338241 479.1237048674225 1527.0400653115366 479.1237048674225L1527.0400653115366 479.1237048674225Q1530.8695058647322 479.1237048674225 1535.1606520165396 476.6522219572042L1535.1606520165396 476.6522219572042Q1536.4914505066572 477.7929063773049 1537.686453232477 479.8570019946301Q1538.881455958297 481.8939384590957 1539.0715700283135 483.061782032056L1539.0715700283135 483.061782032056Q1527.2301793815536 498.1351118691014 1514.4925366904286 498.1351118691014Q1501.7548939993037 498.1351118691014 1496.6761324145696 485.6147424008529L1496.6761324145696 485.6147424008529Q1487.9037260409373 491.7255517942497 1478.7782506801318 494.9303318316756Q1469.6527753193259 498.1351118691014 1463.1345786330357 498.1351118691014Q1456.5892227938862 498.1351118691014 1450.9944373048206 496.69567676754576Q1445.3996518157553 495.2834008188496 1440.6468000653354 492.1329390871428L1440.6468000653354 492.1329390871428Q1430.3263219787098 485.4246283308361 1430.3263219787098 470.0525478123356L1430.3263219787098 470.0525478123356Q1430.3263219787098 461.8504836487541 1434.8619005062533 455.6853559496382Q1439.3974790337966 449.54738740338183 1447.2193150573446 446.01669753164146L1447.2193150573446 446.01669753164146Q1462.2111674358111 439.2269093167561 1483.0422376790798 438.6565671067057L1483.0422376790798 438.6565671067057L1494.096012892913 438.27633896667214Q1494.7749917144015 430.53598040170283 1494.7749917144015 426.0547201798785L1494.7749917144015 426.0547201798785Q1494.7749917144015 415.9243561632695 1490.9183920083467 410.76411711995667Q1487.034633149432 405.60387807664375 1476.5240409927897 405.60387807664375L1476.5240409927897 405.60387807664375Q1470.223117529376 405.60387807664375 1466.746745963355 410.0036608398895Q1463.2703743973334 414.4034436031352 1463.2703743973334 422.98573590675034L1463.2703743973334 422.98573590675034Q1463.2703743973334 424.126420326851 1460.0112760541883 425.75596949842355L1460.0112760541883 425.75596949842355Q1454.5794454822803 428.33608902007995 1449.1747740632313 428.33608902007995Q1443.7972617970422 428.33608902007995 1440.5924817596165 425.2942638998113Q1437.3877017221905 422.2252796266832 1437.3877017221905 416.6848124433367Q1437.3877017221905 411.14434525999025 1441.4072563454024 406.2828568981323Q1445.3996518157553 401.42136853627443 1452.0808034192023 398.7326124031798L1452.0808034192023 398.7326124031798Q1465.361629167518 393.4908959012883 1482.363258857591 393.4908959012883L1482.363258857591 393.4908959012883Q1500.1253448277312 393.4908959012883 1508.3274089913127 399.1128405432134L1508.3274089913127 399.1128405432134Q1515.769016874827 404.0829655165095 1518.9194786065339 413.3442366416131L1518.9194786065339 413.3442366416131Q1522.6674417011504 424.126420326851 1522.6674417011504 440.85645848832854ZM1494.096012892913 475.59301499568204L1494.096012892913 475.59301499568204Q1492.8738510142337 468.6402718636395 1492.8738510142337 463.5343511260457Q1492.8738510142337 458.4284303884519 1493.145442542829 449.2486367219269L1493.145442542829 449.2486367219269L1479.891775947373 449.81897893197726Q1469.6527753193259 449.81897893197726 1464.1123081359792 454.7891039052733Q1458.5990001054925 459.75922887856944 1458.5990001054925 467.2008367620838Q1458.5990001054925 474.6424446455981 1461.8309392957776 477.9015429887431Q1465.0900376389227 481.13348217902853 1474.9488101269362 481.13348217902853Q1484.8347417678092 481.13348217902853 1494.096012892913 475.59301499568204ZM1620.902097594112 431.8667788918204L1620.902097594112 430.7260944717196Q1620.902097594112 414.4034436031352 1613.4604897105976 414.4034436031352L1613.4604897105976 414.4034436031352Q1608.0014999858297 414.4034436031352 1603.0585341653932 417.49958702912295Q1598.088409192097 420.59573045511064 1592.3578279387339 426.13619763845713L1592.3578279387339 426.13619763845713Q1592.3578279387339 435.6962194450157 1591.7874857286834 494.9846501373947L1591.7874857286834 494.9846501373947Q1581.1954161134624 496.8043133789839 1574.459946204296 496.8043133789839Q1567.72447629513 496.8043133789839 1562.862987933272 494.9846501373947L1562.862987933272 494.9846501373947Q1564.0036723533726 479.1237048674225 1564.0036723533726 440.6663444183118L1564.0036723533726 440.6663444183118L1564.0036723533726 418.31436161490916Q1564.0036723533726 411.06286780141164 1558.9249107686385 409.7320693112941L1558.9249107686385 409.7320693112941Q1555.502857508336 408.67286234977195 1549.6636396435347 408.1839975983002L1549.6636396435347 408.1839975983002Q1549.0118199749058 405.3322865480484 1549.0118199749058 403.83853314077356Q1549.0118199749058 402.37193888635835 1549.0932974334846 401.50284599485303L1549.0932974334846 401.50284599485303Q1562.862987933272 393.7624874298837 1583.0965568136303 393.7624874298837L1583.0965568136303 393.7624874298837Q1586.437132615354 393.7624874298837 1588.0666817869264 393.8711240413219L1588.0666817869264 393.8711240413219Q1590.8369153785995 398.6511349446012 1591.352939282931 403.81137398791407Q1591.8689631872621 408.94445387836737 1592.1677138687173 413.64298732306804L1592.1677138687173 413.64298732306804Q1604.9596748655613 398.0807927345508 1613.7320812391931 394.7402169328272L1613.7320812391931 394.7402169328272Q1617.9417499324218 393.1106677612547 1622.6131242242632 393.1106677612547L1622.6131242242632 393.1106677612547Q1632.1731460308215 393.1106677612547 1637.958045589904 398.4067025688653Q1643.7157859961267 403.7027373764759 1643.7157859961267 413.91457885166346L1643.7157859961267 413.91457885166346Q1643.7157859961267 421.76357402807093 1637.9852047427635 427.00529052996245L1637.9852047427635 427.00529052996245Q1632.3632601008385 432.1655295732753 1624.3513100072737 432.1655295732753L1624.3513100072737 432.1655295732753Q1622.6131242242632 432.1655295732753 1620.902097594112 431.8667788918204L1620.902097594112 431.8667788918204Z " fill="#b88746" transform="matrix(0.5323305327931724,0,0,0.5323305327931723,0,74.44868205335771)"/></g></svg>